<?xml version="1.0" encoding="UTF-8" standalone="no"?>
<!DOCTYPE svg PUBLIC "-//W3C//DTD SVG 1.1//EN"
 "http://www.w3.org/Graphics/SVG/1.1/DTD/svg11.dtd">
<!-- Generated by graphviz version 2.42.3 (0)
 -->
<!-- Title: %3 Pages: 1 -->
<svg width="1421pt" height="305pt"
 viewBox="0.00 0.00 1421.43 305.00" xmlns="http://www.w3.org/2000/svg" xmlns:xlink="http://www.w3.org/1999/xlink">
<g id="graph0" class="graph" transform="scale(1 1) rotate(0) translate(4 301)">
<title>%3</title>
<polygon fill="white" stroke="transparent" points="-4,4 -4,-301 1417.43,-301 1417.43,4 -4,4"/>
<!-- 0 -->
<g id="node1" class="node">
<title>0</title>
<ellipse fill="none" stroke="black" cx="766.64" cy="-279" rx="98.58" ry="18"/>
<text text-anchor="middle" x="766.64" y="-275.3" font-family="Times,serif" font-size="14.00">Coord { x: 8, y: 4 }</text>
</g>
<!-- 0&#45;&gt;0 -->
<g id="edge1" class="edge">
<title>0&#45;&gt;0</title>
<path fill="none" stroke="black" d="M856.74,-286.38C872.48,-285.4 883.43,-282.94 883.43,-279 883.43,-275.99 877.01,-273.84 866.94,-272.55"/>
<polygon fill="black" stroke="black" points="867.02,-269.05 856.74,-271.62 866.38,-276.02 867.02,-269.05"/>
<text text-anchor="middle" x="888.43" y="-275.3" font-family="Times,serif" font-size="14.00">0</text>
</g>
<!-- 2 -->
<g id="node3" class="node">
<title>2</title>
<ellipse fill="none" stroke="black" cx="546.64" cy="-192" rx="98.58" ry="18"/>
<text text-anchor="middle" x="546.64" y="-188.3" font-family="Times,serif" font-size="14.00">Coord { x: 8, y: 3 }</text>
</g>
<!-- 0&#45;&gt;2 -->
<g id="edge2" class="edge">
<title>0&#45;&gt;2</title>
<path fill="none" stroke="black" d="M726.55,-262.51C689.98,-248.38 635.83,-227.46 596.49,-212.26"/>
<polygon fill="black" stroke="black" points="597.42,-208.87 586.83,-208.53 594.9,-215.4 597.42,-208.87"/>
<text text-anchor="middle" x="675.64" y="-231.8" font-family="Times,serif" font-size="14.00">1</text>
</g>
<!-- 8 -->
<g id="node9" class="node">
<title>8</title>
<ellipse fill="none" stroke="black" cx="945.64" cy="-192" rx="98.58" ry="18"/>
<text text-anchor="middle" x="945.64" y="-188.3" font-family="Times,serif" font-size="14.00">Coord { x: 8, y: 5 }</text>
</g>
<!-- 0&#45;&gt;8 -->
<g id="edge8" class="edge">
<title>0&#45;&gt;8</title>
<path fill="none" stroke="black" d="M800.31,-262.01C829.22,-248.28 871.07,-228.41 902.44,-213.51"/>
<polygon fill="black" stroke="black" points="904.29,-216.51 911.82,-209.06 901.28,-210.19 904.29,-216.51"/>
<text text-anchor="middle" x="872.64" y="-231.8" font-family="Times,serif" font-size="14.00">1</text>
</g>
<!-- 1 -->
<g id="node2" class="node">
<title>1</title>
<ellipse fill="none" stroke="black" cx="1010.64" cy="-279" rx="98.58" ry="18"/>
<text text-anchor="middle" x="1010.64" y="-275.3" font-family="Times,serif" font-size="14.00">Coord { x: 8, y: 4 }</text>
</g>
<!-- 3 -->
<g id="node4" class="node">
<title>3</title>
<ellipse fill="none" stroke="black" cx="214.64" cy="-105" rx="98.58" ry="18"/>
<text text-anchor="middle" x="214.64" y="-101.3" font-family="Times,serif" font-size="14.00">Coord { x: 8, y: 1 }</text>
</g>
<!-- 2&#45;&gt;3 -->
<g id="edge3" class="edge">
<title>2&#45;&gt;3</title>
<path fill="none" stroke="black" d="M491.82,-176.96C433.55,-162.05 341.45,-138.47 279.59,-122.63"/>
<polygon fill="black" stroke="black" points="280.1,-119.15 269.55,-120.06 278.36,-125.93 280.1,-119.15"/>
<text text-anchor="middle" x="405.64" y="-144.8" font-family="Times,serif" font-size="14.00">2</text>
</g>
<!-- 6 -->
<g id="node7" class="node">
<title>6</title>
<ellipse fill="none" stroke="black" cx="435.64" cy="-105" rx="104.78" ry="18"/>
<text text-anchor="middle" x="435.64" y="-101.3" font-family="Times,serif" font-size="14.00">Coord { x: 15, y: 3 }</text>
</g>
<!-- 2&#45;&gt;6 -->
<g id="edge6" class="edge">
<title>2&#45;&gt;6</title>
<path fill="none" stroke="black" d="M524.98,-174.41C508.05,-161.45 484.33,-143.28 465.59,-128.93"/>
<polygon fill="black" stroke="black" points="467.7,-126.14 457.63,-122.84 463.44,-131.7 467.7,-126.14"/>
<text text-anchor="middle" x="503.64" y="-144.8" font-family="Times,serif" font-size="14.00">7</text>
</g>
<!-- 7 -->
<g id="node8" class="node">
<title>7</title>
<ellipse fill="none" stroke="black" cx="656.64" cy="-105" rx="98.58" ry="18"/>
<text text-anchor="middle" x="656.64" y="-101.3" font-family="Times,serif" font-size="14.00">Coord { x: 1, y: 3 }</text>
</g>
<!-- 2&#45;&gt;7 -->
<g id="edge7" class="edge">
<title>2&#45;&gt;7</title>
<path fill="none" stroke="black" d="M568.11,-174.41C584.81,-161.51 608.18,-143.45 626.71,-129.13"/>
<polygon fill="black" stroke="black" points="629.08,-131.72 634.85,-122.84 624.8,-126.18 629.08,-131.72"/>
<text text-anchor="middle" x="613.64" y="-144.8" font-family="Times,serif" font-size="14.00">7</text>
</g>
<!-- 4 -->
<g id="node5" class="node">
<title>4</title>
<ellipse fill="none" stroke="black" cx="104.64" cy="-18" rx="104.78" ry="18"/>
<text text-anchor="middle" x="104.64" y="-14.3" font-family="Times,serif" font-size="14.00">Coord { x: 15, y: 1 }</text>
</g>
<!-- 3&#45;&gt;4 -->
<g id="edge4" class="edge">
<title>3&#45;&gt;4</title>
<path fill="none" stroke="black" d="M193.17,-87.41C176.47,-74.51 153.1,-56.45 134.57,-42.13"/>
<polygon fill="black" stroke="black" points="136.49,-39.18 126.43,-35.84 132.21,-44.72 136.49,-39.18"/>
<text text-anchor="middle" x="171.64" y="-57.8" font-family="Times,serif" font-size="14.00">7</text>
</g>
<!-- 5 -->
<g id="node6" class="node">
<title>5</title>
<ellipse fill="none" stroke="black" cx="325.64" cy="-18" rx="98.58" ry="18"/>
<text text-anchor="middle" x="325.64" y="-14.3" font-family="Times,serif" font-size="14.00">Coord { x: 1, y: 1 }</text>
</g>
<!-- 3&#45;&gt;5 -->
<g id="edge5" class="edge">
<title>3&#45;&gt;5</title>
<path fill="none" stroke="black" d="M236.31,-87.41C253.23,-74.45 276.95,-56.28 295.69,-41.93"/>
<polygon fill="black" stroke="black" points="297.84,-44.7 303.65,-35.84 293.58,-39.14 297.84,-44.7"/>
<text text-anchor="middle" x="282.64" y="-57.8" font-family="Times,serif" font-size="14.00">7</text>
</g>
<!-- 9 -->
<g id="node10" class="node">
<title>9</title>
<ellipse fill="none" stroke="black" cx="877.64" cy="-105" rx="104.78" ry="18"/>
<text text-anchor="middle" x="877.64" y="-101.3" font-family="Times,serif" font-size="14.00">Coord { x: 15, y: 5 }</text>
</g>
<!-- 8&#45;&gt;9 -->
<g id="edge9" class="edge">
<title>8&#45;&gt;9</title>
<path fill="none" stroke="black" d="M931.88,-173.8C922.05,-161.51 908.66,-144.77 897.65,-131.01"/>
<polygon fill="black" stroke="black" points="900.13,-128.51 891.15,-122.89 894.66,-132.88 900.13,-128.51"/>
<text text-anchor="middle" x="921.64" y="-144.8" font-family="Times,serif" font-size="14.00">7</text>
</g>
<!-- 10 -->
<g id="node11" class="node">
<title>10</title>
<ellipse fill="none" stroke="black" cx="1098.64" cy="-105" rx="98.58" ry="18"/>
<text text-anchor="middle" x="1098.64" y="-101.3" font-family="Times,serif" font-size="14.00">Coord { x: 8, y: 7 }</text>
</g>
<!-- 8&#45;&gt;10 -->
<g id="edge10" class="edge">
<title>8&#45;&gt;10</title>
<path fill="none" stroke="black" d="M975.14,-174.61C999.38,-161.15 1033.89,-141.97 1060.27,-127.32"/>
<polygon fill="black" stroke="black" points="1062.19,-130.25 1069.23,-122.34 1058.79,-124.14 1062.19,-130.25"/>
<text text-anchor="middle" x="1036.64" y="-144.8" font-family="Times,serif" font-size="14.00">2</text>
</g>
<!-- 13 -->
<g id="node14" class="node">
<title>13</title>
<ellipse fill="none" stroke="black" cx="1314.64" cy="-105" rx="98.58" ry="18"/>
<text text-anchor="middle" x="1314.64" y="-101.3" font-family="Times,serif" font-size="14.00">Coord { x: 1, y: 5 }</text>
</g>
<!-- 8&#45;&gt;13 -->
<g id="edge13" class="edge">
<title>8&#45;&gt;13</title>
<path fill="none" stroke="black" d="M1004.52,-177.44C1070.26,-162.29 1176.54,-137.81 1246,-121.81"/>
<polygon fill="black" stroke="black" points="1247.01,-125.17 1255.97,-119.51 1245.44,-118.35 1247.01,-125.17"/>
<text text-anchor="middle" x="1157.64" y="-144.8" font-family="Times,serif" font-size="14.00">7</text>
</g>
<!-- 11 -->
<g id="node12" class="node">
<title>11</title>
<ellipse fill="none" stroke="black" cx="987.64" cy="-18" rx="104.78" ry="18"/>
<text text-anchor="middle" x="987.64" y="-14.3" font-family="Times,serif" font-size="14.00">Coord { x: 15, y: 7 }</text>
</g>
<!-- 10&#45;&gt;11 -->
<g id="edge11" class="edge">
<title>10&#45;&gt;11</title>
<path fill="none" stroke="black" d="M1076.98,-87.41C1060.05,-74.45 1036.33,-56.28 1017.59,-41.93"/>
<polygon fill="black" stroke="black" points="1019.7,-39.14 1009.63,-35.84 1015.44,-44.7 1019.7,-39.14"/>
<text text-anchor="middle" x="1055.64" y="-57.8" font-family="Times,serif" font-size="14.00">7</text>
</g>
<!-- 12 -->
<g id="node13" class="node">
<title>12</title>
<ellipse fill="none" stroke="black" cx="1208.64" cy="-18" rx="98.58" ry="18"/>
<text text-anchor="middle" x="1208.64" y="-14.3" font-family="Times,serif" font-size="14.00">Coord { x: 1, y: 7 }</text>
</g>
<!-- 10&#45;&gt;12 -->
<g id="edge12" class="edge">
<title>10&#45;&gt;12</title>
<path fill="none" stroke="black" d="M1120.11,-87.41C1136.81,-74.51 1160.18,-56.45 1178.71,-42.13"/>
<polygon fill="black" stroke="black" points="1181.08,-44.72 1186.85,-35.84 1176.8,-39.18 1181.08,-44.72"/>
<text text-anchor="middle" x="1165.64" y="-57.8" font-family="Times,serif" font-size="14.00">7</text>
</g>
</g>
</svg>
